<svg width="26" height="26" viewBox="0 0 26 26" fill="none" xmlns="http://www.w3.org/2000/svg"><path fill-rule="evenodd" clip-rule="evenodd" d="M13 11a3 3 0 1 0 0-6 3 3 0 0 0 0 6Zm0 1a4 4 0 1 0 0-8 4 4 0 0 0 0 8Z" fill="#27251F"/><path fill-rule="evenodd" clip-rule="evenodd" d="M18.843 11.786C19.587 10.187 20 8.87 20 8A7 7 0 1 0 6 8c0 .87.414 2.187 1.157 3.786.725 1.56 1.702 3.259 2.69 4.84A88.607 88.607 0 0 0 13 21.309a88.63 88.63 0 0 0 3.152-4.682c.99-1.581 1.966-3.28 2.691-4.84ZM13.62 22.158C15.498 19.568 21 11.664 21 8A8 8 0 1 0 5 8c0 3.664 5.502 11.567 7.38 14.158.387.534.62.842.62.842s.233-.308.62-.842Z" fill="#27251F"/></svg>